<svg xmlns="http://www.w3.org/2000/svg" viewBox="0 0 128 128" width="100%" height="100%">
  <defs>
    <linearGradient id="gold-grad" x1="0%" y1="0%" x2="100%" y2="100%">
      <stop offset="0%" stop-color="#f59e0b" />
      <stop offset="100%" stop-color="#d97706" />
    </linearGradient>
  </defs>
  <rect width="128" height="128" rx="28" fill="#171615" />
  <path d="M 64 24 C 48 16 28 22 20 28 L 20 92 C 28 86 48 80 64 88 Z" fill="#faf8f5" opacity="0.9" />
  <path d="M 64 24 C 80 16 100 22 108 28 L 108 92 C 100 86 80 80 64 88 Z" fill="#f4efea" opacity="0.85" />
  <path d="M 64 24 L 64 104 L 72 96 L 80 104 L 80 24 Z" fill="url(#gold-grad)" />
  <path d="M 64 40 L 40 88 L 52 88 L 64 64 L 76 88 L 88 88 Z" fill="#171615" />
</svg>
